<?xml version="1.0" encoding="UTF-8"?>
<svg width="64px" height="64px" fill="none" viewBox="0 0 24 24" xmlns="http://www.w3.org/2000/svg">
<circle cx="18.5" cy="4.5" r="2.5" stroke="#FF6F61" stroke-width="1.008"/>
<path d="M9 17L7.99923 18.2009C7.262 19.0856 6.89338 19.5279 6.38945 19.764C5.88552 20 5.30973 20 4.15813 20H3" stroke="#FF6F61" stroke-linecap="round" stroke-width="1.008"/>
<path d="m13.65 22c0 0.4142 0.3358 0.75 0.75 0.75s0.75-0.3358 0.75-0.75h-1.5zm-1.0855-5.7542 0.4529-0.5978-0.4529 0.5978zm1.1844 1.0153 0.5872-0.4665-0.5872 0.4665zm0.557 1.1207 0.7265-0.1863-0.7265 0.1863zm-0.8017-6.8267c0.3065-0.2787 0.329-0.753 0.0504-1.0595s-0.753-0.3291-1.0594-0.0505l1.009 1.11zm-2.6522 1.6094 0.7032 0.2608-0.7032-0.2608zm0.0696 1.5556-0.6771 0.3226 0.6771-0.3226zm2.7284 5.2189v2.061h1.5v-2.061h-1.5zm-1.5384-3.0953c0.6637 0.5027 0.8873 0.679 1.0501 0.884l1.1744-0.9331c-0.3082-0.388-0.7173-0.691-1.3187-1.1466l-0.9058 1.1957zm3.0384 3.0953c0-0.7545 0.0055-1.2635-0.1176-1.7435l-1.453 0.3727c0.065 0.2535 0.0706 0.5382 0.0706 1.3708h1.5zm-1.9883-2.2113c0.1968 0.2477 0.3391 0.5341 0.4177 0.8405l1.453-0.3727c-0.131-0.5107-0.3683-0.9881-0.6963-1.4009l-1.1744 0.9331zm-0.6665-7.2826c-0.4197 0.3815-0.9449 0.8363-1.3541 1.2236-0.2093 0.1982-0.4097 0.3983-0.5733 0.5868-0.1485 0.1712-0.3266 0.399-0.419 0.6483l1.4064 0.5215c-0.0077 0.0209 0.0141-0.0352 0.1456-0.1867 0.1163-0.1341 0.2759-0.2954 0.4715-0.4805 0.4005-0.3791 0.8644-0.7781 1.3319-1.203l-1.009-1.11zm0.5222 5.2029c-0.4875-0.3693-0.8177-0.6202-1.0554-0.8318-0.2336-0.2078-0.3209-0.3297-0.3633-0.4186l-1.3542 0.6451c0.1672 0.3509 0.4235 0.6299 0.7202 0.894 0.2924 0.2603 0.6788 0.5523 1.1469 0.907l0.9058-1.1957zm-2.8686-2.7442c-0.25836 0.6966-0.22382 1.4682 0.0957 2.1389l1.3542-0.6451c-0.1452-0.3049-0.1609-0.6556-0.0435-0.9723l-1.4064-0.5215z" fill="#FF6F61"/>
<path d="m5.8062 9.4723c0.36014-0.20463 0.48621-0.66246 0.28158-1.0226-0.20462-0.36014-0.66246-0.48621-1.0226-0.28159l0.74102 1.3042zm-2.1767-0.48846c-0.36014 0.20462-0.48621 0.66246-0.28158 1.0226 0.20462 0.3602 0.66246 0.4862 1.0226 0.2816l-0.74102-1.3042zm9.7771-1.6271-0.2855 0.69354 0.2855-0.69354zm-2.9599-0.71429-0.0543-0.74803 0.0543 0.74803zm10.553 6.1071c0.4142 0 0.75-0.3357 0.75-0.75 0-0.4142-0.3358-0.75-0.75-0.75v1.5zm-5.2319-3.2138-0.6708 0.3354 0.6708-0.3354zm-7.03-3.2633c-0.38814 0.14466-0.58551 0.57657-0.44086 0.9647 0.14466 0.38813 0.57657 0.58551 0.9647 0.44085l-0.52384-1.4056zm-3.6729 1.8956-1.4357 0.81573 0.74102 1.3042 1.4357-0.81572-0.74102-1.3042zm8.6269-1.5049c-1.344-0.55325-2.081-0.8574-3.2997-0.76878l0.1087 1.496c0.8237-0.05989 1.2564 0.09851 2.62 0.65981l0.571-1.3871zm6.0625 6.0863h1.2454v-1.5h-1.2454v1.5zm-4.6573-2.8784c0.882 1.7641 2.685 2.8784 4.6573 2.8784v-1.5c-1.4041 0-2.6877-0.7933-3.3157-2.0492l-1.3416 0.67081zm1.3416-0.67081c-0.5778-1.1557-1.5624-2.0496-2.7468-2.5372l-0.571 1.3871c0.86 0.354 1.5653 0.9992 1.9762 1.8209l1.3416-0.67081zm-7.177-1.5223c0.45205-0.16847 0.84398-0.25883 1.2392-0.28757l-0.1087-1.496c-0.56221 0.04088-1.0947 0.16949-1.6543 0.37807l0.52384 1.4056z" fill="#FF6F61"/>
</svg>