<?xml version="1.0" encoding="UTF-8"?>
<svg width="64px" height="64px" fill="#FF6F61" stroke="#FF6F61" version="1.1" viewBox="0 0 512 512" xml:space="preserve" xmlns="http://www.w3.org/2000/svg">   <path d="m244.73 404.19c-14.865 0-28.068-8.95-33.759-22.34l-6.092 42.437-118.21 37.915c-13.413 4.302-20.797 18.662-16.496 32.074 4.304 13.419 18.671 20.796 32.074 16.496l133.4-42.785c9.292-2.98 16.068-11.001 17.455-20.66l6.65-46.318c-4.875 2.172-10.034 3.181-15.021 3.181z"/>     <path d="m437.76 311.86c-4.828-6.271-12.294-9.945-20.208-9.945h-66.914l10.378-142.87c1.217-16.756-11.38-31.325-28.135-32.543l-68.912-5.005c-16.756-1.217-31.326 11.379-32.543 28.135-14.81 203.89-12.509 176.93-15.046 194.6 6.683-8.158 16.766-13.369 28.101-13.46l-10.814-84.751c-0.737-5.776-1.746-9.697 1.015-14.868l36.504-68.504-19.691 73.036c-0.713 2.648-0.902 5.411-0.555 8.13l14.02 109.87-5.45 0.469c-3.271-3.615-7.822-5.997-12.871-6.471v-2e-3c-11.718-1.109-21.601 8.036-21.776 19.47-0.171 11.245 8.938 20.134 19.717 20.219 0.053 0 0.104 8e-3 0.158 8e-3 2.837 0 5.835-0.628 8.569-1.933-2e-3 -4e-3 -4e-3 -9e-3 -7e-3 -0.013 3.426-1.631 6.28-4.195 8.272-7.348l7.233-0.624c3.603 8.402 12.444 13.768 21.976 12.553 8.92-1.139 15.793-7.719 17.765-15.976l8.187-0.705c4.213 4.656 10.233 7.033 16.448 6.5h0.01c10.951-0.944 19.06-10.587 18.116-21.533-1.156-13.423-15.337-22.101-27.931-16.456l1e-3 9e-3c-3.619 1.615-6.631 4.265-8.706 7.55l-7.798 0.672-13.712-107.46 18.608-69.024-1.862 62.7 11.291 88.489c21.133-6.119 42.22 7.333 46.297 28.138h16.931l-33.601 127.05c-3.601 13.617 4.518 27.575 18.135 31.176 13.61 3.6 27.575-4.516 31.176-18.135l42.07-159.07c2.025-7.652 0.381-15.809-4.446-22.079z"/>     <circle cx="322.62" cy="50.837" r="50.837"/>   </svg>
