<?xml version="1.0" encoding="UTF-8"?>
<svg width="200px" height="200px" fill="#FF6F61" stroke="#FF6F61" version="1.1" viewBox="0 0 512 512" xml:space="preserve" xmlns="http://www.w3.org/2000/svg"> <style type="text/css"> .st0{fill:;} </style>  <path class="st0" d="m264.14 416.9-249.5-211.78-14.646 17.266 249.53 211.79 0.036 0.032c28.359 23.865 64.362 37 101.44 37.008h159.92v-22.639h-159.92c-31.713-1e-3 -62.608-11.253-86.869-31.683z"/> <path class="st0" d="m351.01 425.95h120.31c56.587 0 48.101-56.591 11.318-65.074-24.818-5.728-56.682-18.895-56.682-18.895-12.577-4.194-22.875-13.389-28.442-25.4 0 0-1.377-2.92-3.688-7.834l-46.194 13.966c-5.048 1.528-10.381-1.322-11.908-6.369-1.519-5.048 1.326-10.382 6.374-11.901l43.528-13.167c-3.743-7.975-8.083-17.241-12.656-27.021l-43.171 13.064c-5.049 1.528-10.382-1.345-11.909-6.377-1.531-5.049 1.338-10.382 6.373-11.908l40.529-12.257c-4.312-9.258-8.601-18.476-12.574-27.046l-40.255 12.185c-5.049 1.52-10.382-1.33-11.912-6.377-1.515-5.049 1.329-10.382 6.378-11.901l37.708-11.41c-5.405-11.766-9.326-20.486-10.37-23.192-4.538-11.798-14.504-44.525-37.245-26.334-37.391 29.934-105.6 21.158-123.21-11.56-13.202-24.522-5.654-50.926 0-71.674 4.526-16.584-18.868-42.443-35.837-19.805-12.008 15.999-113.18 135.8-113.18 135.8l254.42 214.12c20.241 17.036 45.839 26.373 72.29 26.373z"/>  </svg>
