<?xml version="1.0" encoding="UTF-8"?>
<svg width="64px" height="64px" fill="#FF6F61" stroke="#FF6F61" stroke-width=".0048554" version="1.1" viewBox="0 0 485.54 485.54" xml:space="preserve" xmlns="http://www.w3.org/2000/svg">    <path d="m55.465 123.23c-15.547 0-28.159 12.608-28.159 28.161v56.673c-15.653 3.846-27.306 17.866-27.306 34.703 0 16.842 11.652 30.861 27.306 34.707v56.666c0 15.555 12.612 28.16 28.159 28.16 15.546 0 28.16-12.605 28.16-28.16v-182.75c0-15.552-12.614-28.161-28.16-28.161z"/> <path d="m334.5 65.278c-23.092 0-41.811 18.719-41.811 41.812v93.864h-93.011l-6.827-0.163v-93.701c0-23.092-18.72-41.812-41.813-41.812-23.091 0-41.812 18.719-41.812 41.812v271.36c0 23.093 18.721 41.812 41.812 41.812 23.094 0 41.813-18.719 41.813-41.812v-93.653s4.501-0.211 6.827-0.211h93.011v93.864c0 23.093 18.719 41.812 41.811 41.812 23.094 0 41.812-18.719 41.812-41.812v-271.36c1e-3 -23.091-18.718-41.811-41.812-41.811z"/> <path d="m458.23 208.06v-56.673c0-15.552-12.613-28.161-28.158-28.161-15.547 0-28.16 12.608-28.16 28.161v182.75c0 15.555 12.613 28.16 28.16 28.16 15.545 0 28.158-12.605 28.158-28.16v-56.666c15.654-3.846 27.307-17.865 27.307-34.707-1e-3 -16.838-11.653-30.857-27.307-34.703z"/>    </svg>

