<?xml version="1.0" encoding="UTF-8"?>
<svg width="74px" height="74px" fill="#FF6F61" stroke="#FF6F61" stroke-width=".0048305" version="1.1" viewBox="0 0 483.05 483.05" xml:space="preserve" xmlns="http://www.w3.org/2000/svg">    <circle cx="159.7" cy="83.459" r="83.459"/> <path d="m381.49 132.46c-43.277 0-78.486 35.209-78.486 78.488 0 12.521 2.964 24.361 8.201 34.875l-40.447 40.063s-60.969-67.929-76.977-82.275-39.84-24.049-64.146-24.049c-47.967 0-89.123 35.537-96.174 82.834-0.121 0.682-0.219 1.371-0.285 2.069l-0.01 0.113c-0.291 2.274-0.492 4.397-0.617 6.461l-9.363 185.72c-0.641 6.734 1.588 13.432 6.143 18.434 4.553 5.006 11.002 7.859 17.771 7.859h134.34c12.186 0 22.441-9.123 23.861-21.229l9.713-130.06c4e-3 -0.039 0.01-0.078 0.014-0.119l0.201-1.805s39.995 36.558 54.091 36.558c9.092 0 17.404-3.113 23.612-9.263l70.483-69.819c5.81 1.375 11.855 2.125 18.078 2.125 43.277 0 78.486-35.209 78.486-78.487 2e-3 -43.277-35.207-78.486-78.485-78.486zm0 100.01c-11.871 0-21.527-9.656-21.527-21.525 0-11.871 9.656-21.527 21.527-21.527 11.869 0 21.525 9.656 21.525 21.527 1e-3 11.869-9.656 21.525-21.525 21.525z"/>    </svg>
